<?xml version="1.0" encoding="utf-8"?>
<!-- Generator: Adobe Illustrator 22.0.0, SVG Export Plug-In . SVG Version: 6.00 Build 0)  -->
<svg version="1.1" id="Layer_1" xmlns="http://www.w3.org/2000/svg" xmlns:xlink="http://www.w3.org/1999/xlink" x="0px" y="0px"
	 width="297px" height="126.9px" viewBox="0 0 297 126.9" style="enable-background:new 0 0 297 126.9;" xml:space="preserve">
<style type="text/css">
	.st0{fill-rule:evenodd;clip-rule:evenodd;fill:#085CA7;}
	.st1{fill-rule:evenodd;clip-rule:evenodd;fill:#010101;}
	.st2{fill:#010101;}
</style>
<g>
	<g>
		<path class="st0" d="M135.4,21c0,0,1-7.6,8.3-7.1c9.4,0.7,7,12.7,7,12.7s1.8-0.1,3.1,1.3c2.4,2.8,3,4,3.1,4c1.2,0,4.5-2,5.1-3.4
			c1.1-2.7-1.4-6.6-1.4-6.6s-3.2,0.3-3.3-0.2c-0.1-0.4-0.1-1.5-0.1-1.5s1-0.5,1.7-0.6c0.7-0.1,1.4,0.2,1.8-0.1
			c1-0.6,1.8-5.1,1.5-5.7c-0.1-0.3-1.3-1.8-2.8-2.8c-1.3-1-3-1.2-3-1.2l-2.3,1.9l-1.6-1.4l2.3-2.4c0,0-0.2-1.3-1-2.3
			c-2.9-3.5-3.4-3.2-7.4-2.2c-1.6,0.4-2.4,1.5-2.4,1.5L144,7.3l-1.8,0.2c0,0,0.2-2.7-0.3-3c-0.4-0.3-2.6-2.3-6.8-1.4
			c-0.8,0.2-3.4,4.1-3.1,5c0.2,0.6,1.6,2.8,1.6,2.8l-1.5,1.4l-0.8-0.6c0,0-1.2-1.9-2.2-1.7c-1,0.2-4.5,2.7-4.7,3.8
			c-0.2,1.1,0.5,5.8,1.6,6.1c1,0.3,3.2,0.3,3.2,0.3l-0.3,1.7c0,0-2.4,0-3.1,0.3c-0.6,0.3-2,4.6-1.1,5.7c0.9,1.1,3.6,4.2,5.7,3.6
			c1.4-0.4,1.1-2.8,1.2-4.8c0-1.6,0.3-3,0.3-3s0.2-1.4,1.3-2.1C134.4,20.8,135.4,21,135.4,21 M116.2,37.2l0,12.7h17.4
			c0,0,1.3,0.5,1.4,1.3c0.1,0.8,0.2,1.5,0.2,1.5h1.3c0,0,0.7-0.7-0.1-2.4c-0.5-1-0.6-1.2-1.1-1.8c-0.7-0.7-1.8-0.8-1.6-2.7
			c0.1-0.9,0.1-4.6,0.1-8.7v0c0-6.1,0-13.1,0-13.1s0.2-0.6,1-0.6c0.8,0,0.7,0.6,0.7,0.6v8.2c0,0,0,0.7,1,0.7c1,0,1.1-0.7,1.1-0.7
			V21.7c0,0,0.3-1.3,1-1.3c0.8,0,1.3,0.6,1.3,0.6v11.5c0,0,0.4,0.5,1.1,0.5c0.7,0,0.8-0.8,0.8-0.8l0.1-12.6c0,0,0-1.6,1.2-1.6
			c1.2,0,1.2,1.1,1.2,1.1v12.4c0,0-0.3,1.2,0.8,1.2c1,0,1.1-1.4,1.1-1.4v-9.9c0,0-0.1-0.9,1.5-0.9c1.2,0,1,1,1,1v14.7
			c0,0-0.9,0.4-2.1,0.9l4,0h-4c-1,0.5-2.2,1.1-2.9,1.7c-2.4,2.1-2.4,5.6-2.4,5.6l1.1,0.3c0,0,0.6-3.1,2.5-4.5c3-2.2,5.6-2.6,5.6-2.6
			l0-0.4l0.1-7.3c0,0,0.8-0.9,1.4-0.8c0.5,0.1,0.9,1.3,0.9,1.3v6.8v10.2c0,0-2.4,2.2-2.8,2.9c-0.8,1.4-0.7,2.4-0.7,2.4l1.5-0.4
			c0,0,0.3-1,1-1.5c0.6-0.5,1.2-0.9,1.2-0.9h18.1l0-12.8H153h18.3L171.3,0l-55.2,0L116.2,37.2z"/>
	</g>
	<g>
		<path class="st1" d="M87.6,95v-3.3h1l0,0.2l0.1,1c0.1,0.6,0.3,1,0.7,1.4c0.5,0.5,1.1,0.7,1.9,0.7c1,0,1.7-0.4,2.1-1.2
			c0.4-0.8,0.6-2.1,0.6-3.9v-15c0-1.1-0.1-1.7-0.4-2.1c-0.3-0.3-0.9-0.5-1.8-0.5h-0.2v-0.8h7.5v0.8h-0.2c-0.9,0-1.5,0.2-1.8,0.5
			c-0.3,0.3-0.4,1-0.4,2.1v13.8c0,1.7-0.1,3-0.3,3.8c-0.2,0.8-0.5,1.4-1,2c-0.9,1-2.2,1.5-3.9,1.5C89.9,95.8,88.6,95.6,87.6,95z"/>
		<path class="st2" d="M122.1,91.7h-7.8v-0.8c0.1,0,0.2,0,0.3,0c0.5,0,0.9-0.1,1.4-0.4c0.4-0.3,0.7-0.6,0.7-1c0-0.1,0-0.2-0.1-0.3
			l-2.2-6h-7.1l-1.8,4.9c-0.1,0.5-0.2,0.8-0.2,1.1c0,0.5,0.2,0.9,0.5,1.2c0.3,0.3,0.8,0.4,1.4,0.4c0.2,0,0.4,0,0.5,0v0.8h-6.8v-0.8
			c0.5,0,1-0.1,1.4-0.4c0.4-0.2,0.7-0.5,0.9-0.8l7.5-18.1h1.8l6.8,17.5c0.2,0.6,0.6,1,1.1,1.4c0.5,0.3,1,0.5,1.6,0.4V91.7z
			 M114,82.1c-0.9-2.5-2-5.1-3.2-7.8l-3,7.8H114z"/>
		<path class="st2" d="M143.2,72.5c-0.4,0.2-0.8,0.4-1.1,0.6c-0.8,0.5-1.5,1.2-1.9,1.9l-5.2,8.4v5.5c0,0.9,0.3,1.5,0.9,1.7
			c0.4,0.2,1,0.3,1.9,0.3l0.1,0.8h-8.4v-0.9c0.3,0.1,0.5,0.1,0.6,0.1c0.6,0,1.2-0.1,1.6-0.4c0.4-0.3,0.7-0.6,0.7-1.1v-6.3l-5.3-8.4
			c-0.5-0.8-1.2-1.4-2.1-1.8c-0.3-0.1-0.7-0.2-1.2-0.4v-0.8h8.5v0.9c-0.6,0-1,0.1-1.3,0.1c-0.8,0.2-1.3,0.5-1.3,0.8
			c0,0.1,0,0.3,0.1,0.4c0,0.1,0.5,1.2,1.7,3.1c1.2,2,2.2,3.5,3,4.7l4.1-7c0.2-0.4,0.4-0.8,0.4-1.1c0-0.5-0.3-0.8-1-1
			c-0.2,0-0.5-0.1-1-0.1v-0.9h6V72.5z"/>
		<path class="st2" d="M160.8,77c0,1.6-0.5,3-1.5,4.1c-1,1.1-2.3,1.7-3.9,1.7h-5.1v6.4c0,0.7,0.4,1.1,1.3,1.4
			c0.3,0.1,0.7,0.2,1.4,0.3v0.9h-8v-0.9c0.1,0,0.1,0,0.2,0c0.2,0,0.3,0,0.5,0c0.5,0,0.9-0.1,1.2-0.2c0.4-0.2,0.7-0.5,0.7-0.9V73.8
			c0-0.5-0.4-0.9-1.3-1.1c-0.3-0.1-0.7-0.1-1.3-0.2v-0.8h11.7c1.2,0,2.3,0.5,3,1.6C160.5,74.3,160.8,75.5,160.8,77z M157.9,77.2
			c0-1.2-0.3-2.2-0.8-3.1c-0.6-0.9-1.4-1.3-2.5-1.3h-4.1l-0.2,0.2v8.7h4.9c0.7,0,1.3-0.5,1.9-1.5C157.7,79.3,157.9,78.3,157.9,77.2z
			"/>
		<path class="st2" d="M178.9,76.7h-1.2c0-1-0.3-1.8-0.8-2.6c-0.6-0.9-1.3-1.3-2.2-1.3h-5.9v8h3.5c0.6,0,1.1-0.3,1.5-1
			c0.1-0.3,0.3-0.9,0.5-1.8h1.1v6.7h-1.1c0-0.4-0.1-0.7-0.1-0.9c-0.3-1.3-0.9-1.9-1.9-1.9h-3.4v7.7c0,0.4,0.2,0.7,0.6,1
			c0.4,0.3,0.8,0.4,1.4,0.4h4.1c0.9,0,1.5-0.4,2-1.2c0.4-0.6,0.6-1.5,0.8-2.6h1.2l-0.4,4.6h-14.8v-0.9c0.1,0,0.2,0.1,0.4,0.1
			c0.5,0,1-0.2,1.5-0.5c0.5-0.3,0.7-0.7,0.7-1.2V74.4c0-0.8-0.4-1.4-1.3-1.7c-0.3-0.1-0.7-0.1-1.3-0.2v-0.8h15.4V76.7z"/>
		<path class="st2" d="M196.8,76.7h-1.2c0-1-0.3-1.8-0.8-2.6c-0.6-0.9-1.3-1.3-2.2-1.3h-5.9v8h3.5c0.6,0,1.1-0.3,1.5-1
			c0.2-0.3,0.3-0.9,0.5-1.8h1.1v6.7H192c0-0.4,0-0.7-0.1-0.9c-0.3-1.3-0.9-1.9-1.9-1.9h-3.4v7.7c0,0.4,0.2,0.7,0.6,1
			c0.4,0.3,0.8,0.4,1.4,0.4h4.2c0.9,0,1.5-0.4,2-1.2c0.4-0.6,0.6-1.5,0.8-2.6h1.3l-0.4,4.6h-14.8v-0.9c0.1,0,0.2,0.1,0.4,0.1
			c0.5,0,1.1-0.2,1.5-0.5c0.5-0.3,0.7-0.7,0.7-1.2V74.4c0-0.8-0.4-1.4-1.3-1.7c-0.3-0.1-0.7-0.1-1.3-0.2v-0.8h15.4V76.7z"/>
		<path class="st2" d="M21,126.5h-8v-0.8c0.6,0,1-0.1,1.3-0.1c0.9-0.3,1.4-0.7,1.4-1.4v-7.6H5.4v7.4c0,0.7,0.4,1.2,1.3,1.5
			c0.3,0.1,0.7,0.1,1.3,0.2v0.9H0v-0.9c0.8,0,1.4,0,1.7-0.1c0.6-0.2,0.9-0.5,0.9-1v-16.2c0-0.3-0.4-0.6-1.3-0.8
			c-0.3-0.1-0.7-0.1-1.3-0.2v-0.8h8v0.9c-0.6,0.1-1,0.1-1.3,0.2c-0.9,0.2-1.3,0.4-1.3,0.8v7h10.4v-6.1c0-0.8-0.4-1.3-1.3-1.6
			c-0.3-0.1-0.7-0.2-1.4-0.2v-0.9h8v0.9c-0.6,0-1,0.1-1.3,0.1c-0.9,0.1-1.3,0.3-1.3,0.6v15.6c0,0.8,0.4,1.3,1.3,1.6
			c0.3,0.1,0.7,0.1,1.3,0.2V126.5z"/>
		<path class="st2" d="M43.4,115.8c0,3.4-0.7,6.1-2,7.8c-1.6,2.2-4.4,3.3-8.1,3.3c-3.6,0-6.1-0.8-7.5-2.5c-1.4-1.6-2.1-4.2-2.1-8
			c0-3.8,0.9-6.5,2.8-8.1c1.6-1.3,4-2,7.2-2c3.8,0,6.5,0.9,8,2.8C42.8,110.6,43.4,112.9,43.4,115.8z M40.5,115.8
			c0-2.4-0.5-4.3-1.5-5.8c-1.2-1.8-2.9-2.7-5.3-2.7c-2.5,0-4.3,0.8-5.5,2.3c-1.2,1.5-1.7,4-1.7,7.4c0,3.2,0.6,5.5,1.8,6.9
			c1.2,1.4,2.9,2.1,5.1,2.1c2.6,0,4.4-0.8,5.5-2.3C40,122.1,40.5,119.5,40.5,115.8z"/>
		<path class="st2" d="M63.4,111.6h-1.3c-0.1-0.9-0.2-1.5-0.3-1.9c-0.5-1.3-1.3-2-2.5-2h-3.2l-0.1,16c0,0.8,0.3,1.4,0.9,1.6
			c0.2,0.1,0.9,0.2,1.9,0.3v0.9h-8.3v-0.9c0.9,0,1.6-0.1,2-0.3c0.7-0.3,1-0.9,1-1.8v-15.9h-3.7c-0.8,0-1.5,0.5-1.9,1.4
			c-0.4,0.7-0.5,1.6-0.5,2.6H46v-5.1h17.4V111.6z"/>
		<path class="st2" d="M81.2,111.5h-1.3c0-1-0.3-1.8-0.8-2.6c-0.6-0.9-1.3-1.3-2.2-1.3H71v8h3.5c0.6,0,1.1-0.3,1.4-1
			c0.2-0.3,0.3-1,0.5-1.8h1.1v6.7h-1.1c0-0.4,0-0.7-0.1-0.9c-0.3-1.3-0.9-1.9-1.9-1.9H71v7.7c0,0.4,0.2,0.7,0.6,1
			c0.4,0.3,0.8,0.4,1.4,0.4h4.1c0.9,0,1.5-0.4,2-1.2c0.4-0.6,0.6-1.5,0.8-2.6h1.3l-0.4,4.6H65.9v-0.9c0.1,0,0.2,0.1,0.4,0.1
			c0.5,0,1-0.2,1.5-0.5c0.5-0.3,0.7-0.7,0.7-1.2v-14.8c0-0.8-0.4-1.4-1.3-1.7c-0.3-0.1-0.7-0.1-1.3-0.2v-0.8h15.4V111.5z"/>
		<path class="st2" d="M99.1,126.5H83.8c-0.1-0.2-0.1-0.3-0.1-0.5c0-0.1,0-0.2,0.1-0.4c0.8,0,1.3,0,1.7-0.1c0.6-0.2,0.9-0.5,0.9-1.1
			v-15.2c0-0.8-0.5-1.3-1.4-1.6c-0.3-0.1-0.8-0.2-1.4-0.2v-0.8h8.1v0.9c-0.3,0-0.5-0.1-0.7-0.1c-0.6,0-1.1,0.1-1.4,0.4
			c-0.4,0.2-0.5,0.6-0.5,1.2v16.4h6.6c0.7,0,1.3-0.8,1.8-2.3c0.1-0.5,0.3-1.3,0.5-2.3h1.3V126.5z"/>
		<path class="st2" d="M116.6,120.8c0,2.4-0.9,4.2-2.8,5.2c-1.2,0.7-2.8,1-4.7,1c-1,0-2.3-0.2-4.1-0.7c-0.6-0.1-1.4-0.4-2.4-0.7
			l0.4-5.1h1.3c0.1,1.2,0.3,2.2,0.6,2.8c0.8,1.9,2.2,2.8,4.2,2.8c1.3,0,2.4-0.3,3.4-1c1.1-0.8,1.6-1.7,1.6-2.8
			c0-1.8-0.9-3.2-2.8-4.1c-1.7-0.7-3.5-1.4-5.2-2.2c-1.9-1-2.8-2.5-2.8-4.4c0-1.7,0.6-3,1.8-4c1.2-1,2.9-1.4,5.1-1.4
			c0.7,0,1.4,0,2,0.1c0.6,0.1,1.7,0.4,3.3,0.8l0.3,0.2v4.7h-1.3c0-1.3-0.3-2.4-0.8-3.2c-0.7-1-1.8-1.6-3.4-1.6
			c-1.2,0-2.2,0.3-3.1,0.8c-1,0.6-1.5,1.5-1.5,2.6c0,1.5,0.9,2.7,2.8,3.6c1.7,0.7,3.5,1.5,5.3,2.2
			C115.6,117.4,116.6,118.9,116.6,120.8z"/>
		<path class="st2" d="M144.8,117.2c-0.6,0-1.1,0.1-1.5,0.1c-0.4,0.1-0.7,0.3-0.9,0.5l-2.9,4.5l2.9,2.9c0.2,0.2,0.6,0.3,1.3,0.4
			c0.3,0,0.6,0,1,0v0.9l-4.7,0l-2-2.3c-0.7,0.8-1.5,1.4-2.5,1.9c-1,0.5-2.1,0.7-3.1,0.7c-1.2,0-2.3-0.4-3.2-1
			c-1-0.8-1.5-1.8-1.5-3.1c0-1.1,0.4-2.1,1.2-3.2c0.8-1,1.7-1.7,2.9-2.3c-0.6-0.7-1.1-1.5-1.5-2.3c-0.4-0.9-0.6-1.7-0.6-2.6
			c0-1,0.4-1.9,1.2-2.7c0.8-0.8,1.7-1.3,2.9-1.3c1.2,0,2.3,0.3,3.1,1c0.8,0.7,1.3,1.6,1.3,2.7c0,1-0.4,1.9-1.2,2.8
			c-0.6,0.6-1.4,1.2-2.5,1.8l4.4,5l1.4-2.7c0.1-0.2,0.1-0.3,0.1-0.5c0-0.4-0.2-0.7-0.6-0.9c-0.4-0.2-0.8-0.3-1.3-0.3
			c-0.2,0-0.3,0-0.4,0v-0.8h6.7V117.2z M137.5,123.6l-5.1-5.6c-0.6,0.4-1.2,1-1.6,1.6c-0.5,0.7-0.7,1.4-0.7,2.1c0,0.2,0,0.3,0,0.4
			c0.2,1,0.6,1.9,1.3,2.5c0.7,0.6,1.6,1,2.7,1c0.5,0,1.1-0.2,1.7-0.6C136.5,124.6,137.1,124.1,137.5,123.6z M136.4,111.9
			c0-0.9-0.2-1.5-0.6-2c-0.4-0.5-1-0.8-1.7-0.8c-0.7,0-1.3,0.3-1.7,0.7c-0.4,0.5-0.6,1.1-0.6,1.8c0,0.7,0.2,1.5,0.6,2.3
			c0.3,0.6,0.7,1.3,1.3,2c0.7-0.2,1.4-0.7,1.9-1.5C136.1,113.6,136.4,112.8,136.4,111.9z"/>
		<path class="st2" d="M173.3,125.6l-0.1,0.9h-4l-0.3-0.1c-0.6-1.1-1.4-2.3-2.4-3.8c-0.5-0.8-1.3-2-2.4-3.7
			c-0.4-0.6-0.8-1.1-1.1-1.7c-0.2-0.3-0.7-0.5-1.3-0.6c-0.7-0.1-1.2-0.1-1.6-0.1v7.8c0,0.4,0.3,0.8,0.9,1c0.6,0.2,1.2,0.4,1.8,0.4
			v0.9h-8v-0.9c0.2,0,0.4,0,0.5,0c0.6,0,1.1-0.1,1.4-0.2c0.6-0.2,0.9-0.6,0.9-1.2v-15.5c0-0.5-0.3-0.9-0.8-1.1
			c-0.6-0.2-1.2-0.3-2-0.3v-0.9h11.9c1.1,0,2.1,0.5,2.8,1.5c0.7,0.9,1,2,1,3.3c0,1.5-0.5,2.7-1.6,3.5c-0.9,0.7-2.1,1.2-3.6,1.4
			c0.4,0.7,1.2,1.9,2.4,3.5c0.6,0.8,1.4,2,2.5,3.5c0.4,0.5,0.7,1.1,1.1,1.6c0.2,0.3,0.5,0.5,0.9,0.7
			C172.5,125.5,172.8,125.5,173.3,125.6z M167.5,111.5c0-0.9-0.3-1.8-0.8-2.6c-0.6-0.8-1.2-1.2-2-1.2H160v8h3.7
			c1.2,0,2.1-0.4,2.8-1.1C167.2,113.8,167.5,112.7,167.5,111.5z"/>
		<path class="st2" d="M190.1,111.5h-1.2c0-1-0.3-1.8-0.8-2.6c-0.6-0.9-1.3-1.3-2.2-1.3h-5.9v8h3.5c0.6,0,1.1-0.3,1.5-1
			c0.2-0.3,0.3-1,0.5-1.8h1.1v6.7h-1.1c0-0.4,0-0.7-0.1-0.9c-0.3-1.3-0.9-1.9-1.9-1.9h-3.4v7.7c0,0.4,0.2,0.7,0.6,1
			c0.4,0.3,0.8,0.4,1.4,0.4h4.2c0.8,0,1.5-0.4,2-1.2c0.4-0.6,0.6-1.5,0.8-2.6h1.2l-0.4,4.6h-14.8v-0.9c0.1,0,0.2,0.1,0.4,0.1
			c0.5,0,1.1-0.2,1.5-0.5c0.5-0.3,0.7-0.7,0.7-1.2v-14.8c0-0.8-0.4-1.4-1.3-1.7c-0.3-0.1-0.7-0.1-1.3-0.2v-0.8h15.4V111.5z"/>
		<path class="st2" d="M207.6,120.8c0,2.4-0.9,4.2-2.8,5.2c-1.2,0.7-2.8,1-4.7,1c-0.9,0-2.3-0.2-4.1-0.7c-0.6-0.1-1.4-0.4-2.4-0.7
			l0.4-5.1h1.3c0.1,1.2,0.3,2.2,0.6,2.8c0.8,1.9,2.2,2.8,4.2,2.8c1.3,0,2.4-0.3,3.4-1c1.1-0.8,1.6-1.7,1.6-2.8
			c0-1.8-0.9-3.2-2.8-4.1c-1.7-0.7-3.5-1.4-5.2-2.2c-1.9-1-2.8-2.5-2.8-4.4c0-1.7,0.6-3,1.8-4c1.2-1,2.9-1.4,5.1-1.4
			c0.7,0,1.4,0,2,0.1c0.6,0.1,1.7,0.4,3.3,0.8l0.3,0.2v4.7h-1.3c0-1.3-0.3-2.4-0.8-3.2c-0.7-1-1.8-1.6-3.4-1.6
			c-1.2,0-2.3,0.3-3.1,0.8c-1,0.6-1.5,1.5-1.5,2.6c0,1.5,0.9,2.7,2.8,3.6c1.7,0.7,3.5,1.5,5.3,2.2
			C206.6,117.4,207.6,118.9,207.6,120.8z"/>
		<path class="st2" d="M230.7,115.8c0,3.4-0.7,6.1-2,7.8c-1.6,2.2-4.4,3.3-8.1,3.3c-3.6,0-6.1-0.8-7.5-2.5c-1.4-1.6-2.1-4.2-2.1-8
			c0-3.8,0.9-6.5,2.8-8.1c1.6-1.3,4-2,7.2-2c3.8,0,6.5,0.9,8,2.8C230.1,110.6,230.7,112.9,230.7,115.8z M227.7,115.8
			c0-2.4-0.5-4.3-1.5-5.8c-1.2-1.8-2.9-2.7-5.3-2.7c-2.5,0-4.3,0.8-5.5,2.3c-1.2,1.5-1.7,4-1.7,7.4c0,3.2,0.6,5.5,1.8,6.9
			c1.1,1.4,2.9,2.1,5.1,2.1c2.6,0,4.5-0.8,5.5-2.3C227.2,122.1,227.7,119.5,227.7,115.8z"/>
		<path class="st2" d="M251.7,125.6l-0.1,0.9h-4l-0.3-0.1c-0.6-1.1-1.4-2.3-2.4-3.8c-0.5-0.8-1.3-2-2.4-3.7
			c-0.4-0.6-0.8-1.1-1.1-1.7c-0.2-0.3-0.7-0.5-1.3-0.6c-0.7-0.1-1.2-0.1-1.6-0.1v7.8c0,0.4,0.3,0.8,0.9,1c0.6,0.2,1.2,0.4,1.8,0.4
			v0.9h-8v-0.9c0.2,0,0.4,0,0.5,0c0.6,0,1.1-0.1,1.4-0.2c0.6-0.2,0.9-0.6,0.9-1.2v-15.5c0-0.5-0.3-0.9-0.8-1.1
			c-0.5-0.2-1.2-0.3-1.9-0.3v-0.9H245c1.1,0,2.1,0.5,2.8,1.5c0.7,0.9,1,2,1,3.3c0,1.5-0.5,2.7-1.6,3.5c-0.9,0.7-2.1,1.2-3.6,1.4
			c0.4,0.7,1.2,1.9,2.4,3.5c0.6,0.8,1.4,2,2.5,3.5c0.4,0.5,0.7,1.1,1.1,1.6c0.2,0.3,0.5,0.5,0.9,0.7
			C250.8,125.5,251.2,125.5,251.7,125.6z M245.9,111.5c0-0.9-0.3-1.8-0.8-2.6c-0.6-0.8-1.2-1.2-2-1.2h-4.7v8h3.7
			c1.2,0,2.1-0.4,2.8-1.1C245.6,113.8,245.9,112.7,245.9,111.5z"/>
		<path class="st2" d="M270.3,111.6H269c-0.1-0.9-0.2-1.5-0.3-1.9c-0.5-1.3-1.3-2-2.5-2h-3.2l-0.1,16c0,0.8,0.3,1.4,0.9,1.6
			c0.3,0.1,0.9,0.2,1.9,0.3v0.9h-8.3v-0.9c0.9,0,1.6-0.1,2-0.3c0.7-0.3,1-0.9,1-1.8v-15.9h-3.7c-0.8,0-1.5,0.5-1.9,1.4
			c-0.3,0.7-0.5,1.6-0.5,2.6h-1.4v-5.1h17.4V111.6z"/>
		<path class="st2" d="M287.5,120.8c0,2.4-0.9,4.2-2.8,5.2c-1.2,0.7-2.8,1-4.7,1c-0.9,0-2.3-0.2-4.1-0.7c-0.6-0.1-1.4-0.4-2.4-0.7
			l0.4-5.1h1.3c0.1,1.2,0.3,2.2,0.6,2.8c0.8,1.9,2.2,2.8,4.2,2.8c1.3,0,2.4-0.3,3.4-1c1.1-0.8,1.6-1.7,1.6-2.8
			c0-1.8-0.9-3.2-2.8-4.1c-1.7-0.7-3.5-1.4-5.2-2.2c-1.9-1-2.8-2.5-2.8-4.4c0-1.7,0.6-3,1.8-4c1.2-1,2.9-1.4,5.1-1.4
			c0.7,0,1.4,0,2,0.1c0.6,0.1,1.7,0.4,3.3,0.8l0.3,0.2v4.7h-1.3c0-1.3-0.3-2.4-0.8-3.2c-0.7-1-1.8-1.6-3.4-1.6
			c-1.2,0-2.2,0.3-3.1,0.8c-1,0.6-1.5,1.5-1.5,2.6c0,1.5,0.9,2.7,2.8,3.6c1.8,0.7,3.5,1.5,5.3,2.2
			C286.6,117.4,287.5,118.9,287.5,120.8z"/>
	</g>
</g>
<path class="st1" d="M292,99.8c0.7,0,1.1-0.3,1.1-0.9v0c0-0.6-0.4-0.9-1.1-0.9h-1.4v1.8H292L292,99.8z M289.6,97.1h2.5
	c0.7,0,1.3,0.2,1.7,0.6c0.3,0.3,0.5,0.7,0.5,1.2v0c0,0.9-0.5,1.4-1.3,1.7l1.5,2.1h-1.3l-1.3-1.9h0h-1.1v1.9h-1.1V97.1L289.6,97.1z
	 M296.4,100c0,2.6-2,4.8-4.7,4.8c-2.7,0-4.7-2.1-4.7-4.7v0c0-2.6,2-4.8,4.7-4.8C294.4,95.3,296.4,97.4,296.4,100L296.4,100
	L296.4,100z M286.4,100.1L286.4,100.1c0-2.9,2.3-5.3,5.3-5.3c3,0,5.3,2.4,5.3,5.3v0c0,2.9-2.3,5.3-5.3,5.3
	C288.7,105.3,286.4,102.9,286.4,100.1z"/>
</svg>
